<svg width="20" height="24" viewBox="0 0 20 24" fill="none" xmlns="http://www.w3.org/2000/svg">
<path opacity="0.24" fill-rule="evenodd" clip-rule="evenodd" d="M3.79934 20.6163C2.11636 20.6163 0.750488 19.198 0.750488 17.4517C0.750488 16.2927 1.35466 15.2596 2.27812 14.7079C2.27812 14.3878 2.27383 10.5937 2.27383 10.5937C2.27383 6.94863 4.62963 3.8798 7.85942 2.963V2.68375C7.85942 1.51858 8.76879 0.574036 9.89054 0.574036C11.0123 0.574036 11.9217 1.51858 11.9217 2.68375V2.963C15.1522 3.87961 17.5073 6.94871 17.5073 10.5992V14.7171C18.4318 15.2714 19.0306 16.3002 19.0306 17.4517C19.0306 19.2002 17.6667 20.6163 15.9818 20.6163H12.9372C12.9355 22.3643 11.5687 23.7808 9.89054 23.7808C8.20791 23.7808 6.84386 22.3655 6.84386 20.6185L3.79934 20.6163ZM8.87499 20.6163C8.87499 21.1998 9.32916 21.6711 9.89055 21.6711C10.448 21.6711 10.9044 21.1981 10.9061 20.6163H8.87499ZM15.4761 10.5992V15.6965C15.4761 15.9889 15.7005 16.2861 15.9712 16.3588L16.2375 16.4303C16.6818 16.5496 16.9995 16.9696 16.9995 17.4517C16.9995 18.0349 16.5452 18.5066 15.9818 18.5066H3.79934C3.23799 18.5066 2.78162 18.0327 2.78162 17.4517C2.78162 16.9675 3.09797 16.5492 3.54259 16.4303L3.81782 16.3567C4.08686 16.2847 4.30496 15.9916 4.30496 15.6965V10.5937C4.30496 7.39004 6.80516 4.79345 9.89055 4.79345C12.9772 4.79345 15.4761 7.38917 15.4761 10.5992Z" fill="black"/>
</svg>
