<svg width="27" height="15" viewBox="0 0 27 15" fill="none" xmlns="http://www.w3.org/2000/svg">
<g filter="url(#filter0_dd_331_1166)">
<path fill-rule="evenodd" clip-rule="evenodd" d="M13.3328 12.493C19.971 12.493 25.3523 9.93051 25.3523 6.76948C25.3523 3.60845 19.971 1.04594 13.3328 1.04594C6.69467 1.04594 1.31339 3.60845 1.31339 6.76948C1.31339 9.93051 6.69467 12.493 13.3328 12.493Z" fill="#2196F3"/>
<path d="M25.0518 6.76948C25.0518 8.16712 23.8516 9.52206 21.7027 10.5453C19.5762 11.558 16.6173 12.1925 13.3328 12.1925C10.0483 12.1925 7.08948 11.558 4.96299 10.5453C2.81409 9.52206 1.61387 8.16712 1.61387 6.76948C1.61387 5.37184 2.81409 4.01691 4.96299 2.99362C7.08948 1.98101 10.0483 1.34642 13.3328 1.34642C16.6173 1.34642 19.5762 1.98101 21.7027 2.99362C23.8516 4.01691 25.0518 5.37184 25.0518 6.76948Z" stroke="url(#paint0_linear_331_1166)" stroke-width="0.600972"/>
<path d="M25.0518 6.76948C25.0518 8.16712 23.8516 9.52206 21.7027 10.5453C19.5762 11.558 16.6173 12.1925 13.3328 12.1925C10.0483 12.1925 7.08948 11.558 4.96299 10.5453C2.81409 9.52206 1.61387 8.16712 1.61387 6.76948C1.61387 5.37184 2.81409 4.01691 4.96299 2.99362C7.08948 1.98101 10.0483 1.34642 13.3328 1.34642C16.6173 1.34642 19.5762 1.98101 21.7027 2.99362C23.8516 4.01691 25.0518 5.37184 25.0518 6.76948Z" stroke="url(#paint1_linear_331_1166)" stroke-width="0.600972"/>
</g>
<defs>
<filter id="filter0_dd_331_1166" x="0.311765" y="0.0443163" width="26.0421" height="14.452" filterUnits="userSpaceOnUse" color-interpolation-filters="sRGB">
<feFlood flood-opacity="0" result="BackgroundImageFix"/>
<feColorMatrix in="SourceAlpha" type="matrix" values="0 0 0 0 0 0 0 0 0 0 0 0 0 0 0 0 0 0 127 0" result="hardAlpha"/>
<feOffset dy="1.00162"/>
<feGaussianBlur stdDeviation="0.50081"/>
<feColorMatrix type="matrix" values="0 0 0 0 0 0 0 0 0 0 0 0 0 0 0 0 0 0 0.237602 0"/>
<feBlend mode="normal" in2="BackgroundImageFix" result="effect1_dropShadow_331_1166"/>
<feColorMatrix in="SourceAlpha" type="matrix" values="0 0 0 0 0 0 0 0 0 0 0 0 0 0 0 0 0 0 127 0" result="hardAlpha"/>
<feOffset/>
<feGaussianBlur stdDeviation="0.50081"/>
<feColorMatrix type="matrix" values="0 0 0 0 0 0 0 0 0 0 0 0 0 0 0 0 0 0 0.12 0"/>
<feBlend mode="normal" in2="effect1_dropShadow_331_1166" result="effect2_dropShadow_331_1166"/>
<feBlend mode="normal" in="SourceGraphic" in2="effect2_dropShadow_331_1166" result="shape"/>
</filter>
<linearGradient id="paint0_linear_331_1166" x1="1.431" y1="1.04594" x2="1.431" y2="12.381" gradientUnits="userSpaceOnUse">
<stop stop-opacity="0.01"/>
<stop offset="0.8" stop-opacity="0.02"/>
<stop offset="1" stop-opacity="0.04"/>
</linearGradient>
<linearGradient id="paint1_linear_331_1166" x1="1.31339" y1="1.04594" x2="1.31339" y2="12.493" gradientUnits="userSpaceOnUse">
<stop stop-color="white" stop-opacity="0.12"/>
<stop offset="0.2" stop-color="white" stop-opacity="0.06"/>
<stop offset="1" stop-color="white" stop-opacity="0.01"/>
</linearGradient>
</defs>
</svg>
