<svg width="25" height="24" viewBox="0 0 25 24" fill="none" xmlns="http://www.w3.org/2000/svg">
<g clip-path="url(#clip0_403_105)">
<path d="M19.98 0H5.98002C3.21902 0 0.980019 2.239 0.980019 5V19C0.980019 21.761 3.21902 24 5.98002 24H19.98C22.742 24 24.98 21.761 24.98 19V5C24.98 2.239 22.742 0 19.98 0ZM8.98002 19H5.98002V8H8.98002V19ZM7.48002 6.732C6.51402 6.732 5.73002 5.942 5.73002 4.968C5.73002 3.994 6.51402 3.204 7.48002 3.204C8.44602 3.204 9.23002 3.994 9.23002 4.968C9.23002 5.942 8.44702 6.732 7.48002 6.732ZM20.98 19H17.98V13.396C17.98 10.028 13.98 10.283 13.98 13.396V19H10.98V8H13.98V9.765C15.376 7.179 20.98 6.988 20.98 12.241V19Z" fill="#1E1E1E"/>
</g>
<defs>
<clipPath id="clip0_403_105">
<rect width="24" height="24" fill="white" transform="translate(0.980019)"/>
</clipPath>
</defs>
</svg>
