<svg width="24" height="6" viewBox="0 0 24 6" fill="none" xmlns="http://www.w3.org/2000/svg">
<path fill-rule="evenodd" clip-rule="evenodd" d="M2.49274 5.35542C3.86945 5.35542 4.98549 4.15657 4.98549 2.67771C4.98549 1.19885 3.86945 0 2.49274 0C1.11604 0 0 1.19885 0 2.67771C0 4.15657 1.11604 5.35542 2.49274 5.35542ZM11.6328 5.35542C13.0095 5.35542 14.1255 4.15657 14.1255 2.67771C14.1255 1.19885 13.0095 0 11.6328 0C10.2561 0 9.14002 1.19885 9.14002 2.67771C9.14002 4.15657 10.2561 5.35542 11.6328 5.35542ZM23.2656 2.67771C23.2656 4.15657 22.1495 5.35542 20.7728 5.35542C19.3961 5.35542 18.2801 4.15657 18.2801 2.67771C18.2801 1.19885 19.3961 0 20.7728 0C22.1495 0 23.2656 1.19885 23.2656 2.67771Z" fill="black"/>
</svg>
