<svg width="23" height="25" viewBox="0 0 23 25" fill="none" xmlns="http://www.w3.org/2000/svg">
<path opacity="0.5" fill-rule="evenodd" clip-rule="evenodd" d="M22.5752 13.9942V10.3793H19.5964C19.3845 9.22791 18.9608 8.15682 18.375 7.20624L20.4689 4.95696L18.0883 2.39975L15.9944 4.64902C15.1095 4.01976 14.1124 3.56455 13.0405 3.32356V0.137085H9.6753V3.32356C8.59096 3.56455 7.59386 4.01976 6.70894 4.64902L4.61504 2.39975L2.23447 4.95696L4.32837 7.20624C3.74258 8.15682 3.31881 9.22791 3.10693 10.3793H0.140564V13.9942H3.10693C3.33127 15.1456 3.75504 16.2167 4.34084 17.1673L2.23447 19.43L4.61504 21.9872L6.7214 19.7245C7.60633 20.3538 8.60343 20.809 9.6753 21.0366V24.2365H13.0405V21.0366C14.1124 20.809 15.097 20.3538 15.9819 19.7245L18.0883 21.9872L20.4689 19.43L18.3625 17.1673C18.9483 16.2167 19.3721 15.1456 19.5964 13.9942H22.5752ZM11.3579 17.6092C8.56601 17.6092 6.31008 15.1724 6.31008 12.1868C6.31008 9.18776 8.56601 6.76444 11.3579 6.76444C14.1373 6.76444 16.4057 9.18776 16.4057 12.1868C16.4057 15.1724 14.1373 17.6092 11.3579 17.6092Z" fill="white"/>
</svg>
