<svg width="23" height="17" viewBox="0 0 23 17" fill="none" xmlns="http://www.w3.org/2000/svg">
<path opacity="0.5" fill-rule="evenodd" clip-rule="evenodd" d="M0.271179 16.6662H22.7059V0.599976H0.271179V16.6662ZM10.3045 10.6414C10.13 11.0296 9.89317 11.3643 9.6065 11.6321C9.31983 11.8999 8.98331 12.1141 8.6094 12.248C8.22303 12.3953 7.79926 12.4622 7.3381 12.4622C6.76477 12.4622 6.2413 12.3685 5.7926 12.1677C5.33145 11.9534 4.94507 11.6723 4.63348 11.3242C4.30942 10.9627 4.07261 10.5343 3.89812 10.0523C3.73609 9.57028 3.64885 9.04813 3.64885 8.48581C3.64885 7.92349 3.73609 7.38795 3.89812 6.89257C4.07261 6.41059 4.30942 5.98215 4.63348 5.60727C4.94507 5.24578 5.33145 4.96462 5.7926 4.75041C6.2413 4.54958 6.76477 4.44247 7.3381 4.44247C7.74941 4.44247 8.13578 4.49602 8.50969 4.62991C8.87114 4.75041 9.1952 4.92446 9.49433 5.15206C9.78099 5.39306 10.0178 5.67422 10.2048 6.02232C10.4042 6.37042 10.5164 6.75869 10.5662 7.20051H8.97085C8.94592 7.01307 8.88361 6.83902 8.78389 6.67836C8.68419 6.50431 8.55955 6.37042 8.40998 6.24992C8.27288 6.12943 8.09839 6.03571 7.9239 5.96876C7.72448 5.88843 7.53752 5.86166 7.3381 5.86166C6.96419 5.86166 6.6526 5.9286 6.39086 6.07587C6.12912 6.22315 5.91724 6.42397 5.75521 6.67836C5.59318 6.91935 5.48101 7.20051 5.40623 7.52183C5.33145 7.82977 5.29406 8.1511 5.29406 8.48581C5.29406 8.82052 5.33145 9.12846 5.40623 9.4364C5.48101 9.73094 5.59318 10.0121 5.75521 10.2531C5.91724 10.4941 6.12912 10.6949 6.39086 10.8422C6.6526 10.9895 6.96419 11.0564 7.3381 11.0564C7.83665 11.0564 8.23549 10.9091 8.50969 10.5878C8.79636 10.2665 8.97085 9.85144 9.03317 9.34268H10.6285C10.5911 9.82466 10.479 10.2531 10.3045 10.6414ZM19.0166 10.6548C18.8421 11.043 18.6178 11.3643 18.3311 11.6321C18.0444 11.9133 17.7079 12.1141 17.3215 12.2614C16.9352 12.4087 16.5114 12.4756 16.0502 12.4756C15.4769 12.4756 14.9659 12.3819 14.5047 12.1677C14.0436 11.9668 13.6572 11.6857 13.3456 11.3242C13.034 10.9761 12.7847 10.5476 12.6227 10.0657C12.4482 9.58367 12.361 9.06152 12.361 8.4992C12.361 7.92349 12.4482 7.40134 12.6227 6.90596C12.7847 6.41059 13.034 5.98215 13.3456 5.62066C13.6572 5.25917 14.0436 4.96462 14.5047 4.76379C14.9659 4.54958 15.4769 4.45586 16.0502 4.45586C16.4615 4.45586 16.8479 4.50941 17.2218 4.62991C17.5833 4.75041 17.9198 4.93785 18.2065 5.16545C18.4931 5.39306 18.7424 5.6876 18.9294 6.03571C19.1163 6.37042 19.2285 6.77208 19.2783 7.2139H17.683C17.6581 7.01307 17.5957 6.83902 17.496 6.67836C17.3963 6.51769 17.2841 6.38381 17.1346 6.24992C16.985 6.12943 16.8105 6.03571 16.636 5.96876C16.4491 5.90182 16.2497 5.87504 16.0502 5.87504C15.6763 5.87504 15.3647 5.94199 15.103 6.08926C14.8537 6.23653 14.6418 6.43736 14.4798 6.67836C14.3178 6.93274 14.1931 7.2139 14.1184 7.52183C14.056 7.84316 14.0187 8.16448 14.0187 8.4992C14.0187 8.82052 14.056 9.14185 14.1184 9.4364C14.1931 9.74433 14.3178 10.0255 14.4798 10.2665C14.6418 10.5075 14.8537 10.7083 15.103 10.8556C15.3647 10.9895 15.6763 11.0698 16.0502 11.0698C16.5488 11.0698 16.9476 10.9091 17.2343 10.6012C17.521 10.2799 17.683 9.86483 17.7453 9.35606H19.3407C19.3033 9.82466 19.1911 10.2665 19.0166 10.6548Z" fill="white"/>
</svg>
